#tb 0: 1/1000
0,          0,          0,        0,    75936, dca556e648a576b3973fbe4b34d0328c
0,         33,         33,        0,    75936, 34a49e4aba4aca5c76ab0f751341c32b
0,         66,         66,        0,    75936, 4b7cc6d500b273efe7e30fc3a3946f74
0,        100,        100,        0,    75936, 1960f0f1edf9196c96b0de742a3cd53c
0,        133,        133,        0,    75936, 3cb7d90178636911c5d53a5f8e75599c
0,        166,        166,        0,    75936, 84b56c60c2282f85102048cc2cf40b88
0,        200,        200,        0,    75936, 3ca34d2978307ec0fca05130d81bcc26
0,        233,        233,        0,    75936, c15560be737e02ea9d1deeca0af9bb77
0,        266,        266,        0,    75936, 391439789a6aa7bb02d7e699795a9559
0,        300,        300,        0,    75936, 9f681e91cbcbe9920f21236b8ff093c7
